# xmcd
#
# Track frame offsets: 
#        225
#        16810
#        35330
#        53178
#        71707
#        87934
#        103848
#        125367
#        142514
#        156049
#        169112
#        183465
#        195014
#        213955
#
# Disc length: 3088 seconds
#
# Revision: 0
# Processed by: cddbd v1.5.2PL0 Copyright (c) Steve Scherf et al.
# Submitted via: ExactAudioCopy v0.95a4
#
DISCID=af0c0d0e
DTITLE=未知艺术家 - SONGS OF PRAISE
DYEAR=2009
DGENRE=
TTITLE0=AMIGHT FORTRESS IS OUR GOD
TTITLE1=WHISPERING HOPE
TTITLE2=NEARER MY GOD TO THEE
TTITLE3=THE LORD'S MY SHEPHERD
TTITLE4=ABIDE WITH ME
TTITLE5=ONWARD CHRISTIAN SOLDIERS
TTITLE6=THE HOLY CITY
TTITLE7=ETERNAL FATHER STRONG TO SAVE
TTITLE8=BEAUTIFUL ISLE OF SOMEWHERE
TTITLE9=JESU LOVER OF MY SOUL
TTITLE10=JESU JOY OF MAN'S DESIRING
TTITLE11=LITTLE BROWN CHURCH IN THE VALE
TTITLE12=ALL PEOPLE THAT ON EARTH DO DWELL
TTITLE13=ROCK OF AGES
EXTD=
EXTT0=
EXTT1=
EXTT2=
EXTT3=
EXTT4=
EXTT5=
EXTT6=
EXTT7=
EXTT8=
EXTT9=
EXTT10=
EXTT11=
EXTT12=
EXTT13=
PLAYORDER=
